<?xml version="1.0" encoding="utf-8"?>
<svg viewBox="-0.958 -1.94 505.596 504.039" width="505.596" height="504.039" xmlns="http://www.w3.org/2000/svg">
  <rect x="-0.958" y="-1.94" width="505.596" height="504.039" style="stroke: rgb(0, 0, 0); fill: rgb(247, 247, 247);" rx="157.366" ry="157.366" transform="matrix(1, 0, 0, 1, 0, 5.684341886080802e-14)"/>
  <path stroke="none" d="M 154.467 219.533 C 118.406 160.765 114.871 145.529 136.083 144.803 C 138.911 144.803 153.052 162.942 167.194 184.708 C 181.335 206.474 195.476 224.612 197.597 224.612 C 202.547 223.886 285.98 94.742 288.809 82.408 C 290.223 77.329 285.98 64.995 279.617 55.563 C 269.718 39.601 271.132 14.208 282.445 14.208 C 284.566 14.208 296.586 29.444 309.314 47.582 L 331.233 80.957 L 271.132 172.374 C 237.9 223.161 206.082 268.869 201.84 273.948 C 194.769 281.929 185.577 271.772 154.467 219.533 Z" style="fill: rgb(120, 197, 239); transform-origin: 227.119px 145.289px;" transform="matrix(-0.999656975269, -0.026184000075, 0.026184000075, -0.999656975269, -0.000044817133, 0.000027555786)"/>
  <path stroke="none" d="M 181.757 474.918 L 166.202 454.603 L 207.212 392.933 C 229.131 358.833 254.585 319.654 263.07 305.869 L 277.918 281.201 L 262.363 255.807 C 253.171 242.022 239.03 218.805 229.838 204.295 L 213.575 176.724 L 237.615 176.724 C 257.413 176.724 263.777 181.078 274.383 202.118 C 282.161 216.629 291.352 226.786 295.595 225.335 C 299.837 223.884 311.15 210.824 320.342 196.314 C 333.776 175.999 342.261 169.469 357.816 169.469 C 368.422 169.469 377.614 171.646 377.614 173.822 C 377.614 175.999 364.887 199.941 349.332 226.786 C 333.776 253.631 321.049 280.475 321.049 287.005 C 321.049 292.809 330.948 310.222 342.261 325.458 C 358.523 346.499 362.059 355.205 355.695 362.461 C 343.675 377.697 338.726 375.52 320.342 347.224 C 311.15 333.439 301.251 321.831 298.423 321.831 C 289.938 321.831 207.919 448.073 207.919 461.133 C 207.919 467.663 211.454 475.644 214.989 477.82 C 226.302 485.075 222.767 495.958 210.04 495.233 C 202.969 495.233 190.242 485.801 181.757 474.918 Z" style="fill: rgb(71, 127, 169); transform-origin: 271.908px 332.368px;" transform="matrix(-0.999656975269, -0.026184000075, 0.026184000075, -0.999656975269, -0.000018913032, -0.00001305173)"/>
  <path stroke="none" d="M 150.638 342.097 L 105.85 299.363 L 105.85 192.243 L 105.85 84.554 L 152.53 44.098 L 199.211 3.074 L 258.507 3.074 L 317.804 3.074 L 364.484 45.808 C 390.348 69.17 408.641 88.543 404.857 88.543 C 401.702 88.543 380.255 72.019 358.176 51.506 L 317.804 14.47 L 258.507 14.47 L 199.211 14.47 L 158.839 49.796 L 118.466 84.554 L 118.466 190.534 L 118.466 297.084 L 161.362 335.259 L 204.257 373.435 L 260.4 373.435 L 316.542 373.435 L 359.438 335.259 C 412.426 287.397 415.58 294.805 363.854 346.655 L 325.374 384.83 L 260.4 384.83 L 196.057 384.83 L 150.638 342.097 Z" style="fill: rgb(138, 139, 165); transform-origin: 255.601px 193.952px;" transform="matrix(0.999997913837, 0.002166000195, -0.002166000195, 0.999997913837, -0.000015200001, -0.000011509251)"/>
</svg>